<?xml version="1.0" encoding="utf-8"?>
<!-- Generator: Adobe Illustrator 24.3.0, SVG Export Plug-In . SVG Version: 6.00 Build 0)  -->
<svg version="1.1" id="Calque_1" xmlns="http://www.w3.org/2000/svg" xmlns:xlink="http://www.w3.org/1999/xlink" x="0px" y="0px"
	 viewBox="0 0 446.2 184.5" style="enable-background:new 0 0 446.2 184.5;" xml:space="preserve">
<style type="text/css">
	.st0{fill:#020303;}
	.st1{fill:#1E1E1C;}
	.st2{fill:#020203;}
	.st3{clip-path:url(#SVGID_2_);fill:#020203;}
</style>
<polygon class="st0" points="117.1,8.9 81.6,8.9 10.8,79.7 10.8,108.4 81.6,108.4 81.6,143.9 117.1,143.9 117.1,79.7 46.2,79.7 "/>
<polygon class="st0" points="132.3,44.3 167.7,8.9 132.3,8.9 "/>
<polygon class="st0" points="203.2,44.3 203.2,8.9 167.7,8.9 167.7,44.3 132.3,79.7 132.3,115.2 167.7,115.2 167.7,79.7 "/>
<polygon class="st0" points="203.2,79.7 167.7,115.2 203.2,115.2 "/>
<rect x="237.3" y="79.8" class="st1" width="2.8" height="35.2"/>
<polygon class="st2" points="254.3,106.8 259.6,88.2 263.2,88.2 266.4,99.3 272.4,88.2 276.1,88.2 276.7,106.8 272.4,106.8 
	272.3,95.7 266.4,106.8 264.7,106.8 261.5,95.7 258.6,106.8 "/>
<g>
	<defs>
		<rect id="SVGID_1_" width="446.2" height="184.5"/>
	</defs>
	<clipPath id="SVGID_2_">
		<use xlink:href="#SVGID_1_"  style="overflow:visible;"/>
	</clipPath>
	<path class="st3" d="M286.4,88.2l-1.2,10.2c-0.1,0.6-0.1,0.8-0.1,1.6c0,0.8,0.1,1.7,0.8,2.4c0.5,0.5,1.3,0.8,2.5,0.8
		c1.4,0,2.3-0.4,2.7-0.9c0.9-0.9,1.1-2.5,1.3-3.6l1.3-10.6h4.3L296.6,99c-0.3,2.2-0.5,4.5-2.2,6.2c-1.9,1.9-4.6,2-6.1,2
		c-1.8,0-4.2-0.2-5.9-1.9c-1.2-1.1-1.6-2.6-1.6-4.3c0-0.8,0.1-2.2,0.2-2.9l1.2-9.9H286.4z"/>
	<polygon class="st3" points="306.3,88.2 304.5,103.2 310.3,103.2 309.9,106.8 299.7,106.8 302,88.2 	"/>
	<polygon class="st3" points="318,95.2 325.4,95.2 326.3,88.2 330.6,88.2 328.3,106.8 324,106.8 325,98.8 317.6,98.8 316.6,106.8 
		312.3,106.8 314.6,88.2 318.9,88.2 	"/>
	<path class="st3" d="M350.4,90.2c1.6,1.5,2.6,3.9,2.6,6.6c0,2.7-0.9,5.5-2.9,7.6c-2.4,2.4-5.3,2.9-7.7,2.9c-2.3,0-4.9-0.4-7.1-2.7
		c-1.3-1.3-2.6-3.5-2.6-6.5c0-3.3,1.3-5.8,3.1-7.5c2.4-2.3,5.3-2.8,7.7-2.8C347,87.8,349.2,89,350.4,90.2 M338.8,93.5
		c-1.1,1.1-1.7,2.7-1.7,4.3c0,1.7,0.6,3,1.5,3.9c1.3,1.3,2.8,1.6,4.1,1.6c1.3,0,2.8-0.2,4.2-1.6c1-1,1.7-2.7,1.7-4.6
		c0-1.2-0.3-2.7-1.5-3.9c-1.2-1.2-2.7-1.5-3.9-1.5C341.4,91.7,339.9,92.3,338.8,93.5"/>
	<path class="st3" d="M361.7,88.2l-1.2,10.2c-0.1,0.6-0.1,0.8-0.1,1.6c0,0.8,0.1,1.7,0.8,2.4c0.5,0.5,1.3,0.8,2.5,0.8
		c1.4,0,2.3-0.4,2.7-0.9c0.9-0.9,1.1-2.5,1.3-3.6l1.3-10.6h4.3L371.8,99c-0.3,2.2-0.5,4.5-2.2,6.2c-1.9,1.9-4.6,2-6.1,2
		c-1.8,0-4.2-0.2-5.9-1.9c-1.2-1.1-1.6-2.6-1.6-4.3c0-0.8,0.1-2.2,0.2-2.9l1.2-9.9H361.7z"/>
	<path class="st3" d="M386.3,92.7c-1.2-1.1-2.3-1.3-3.1-1.3c-0.5,0-1.3,0.1-1.8,0.5c-0.4,0.3-0.6,0.8-0.6,1.3c0,0.6,0.3,1,0.6,1.3
		c0.4,0.3,0.9,0.6,1.8,1l1.1,0.5c0.9,0.4,1.7,0.9,2.5,1.8c0.7,0.8,1,1.7,1,2.9c0,2-0.8,3.7-1.9,4.8c-1.5,1.5-3.4,1.8-5.3,1.8
		c-1.4,0-2.5-0.2-3.7-0.8c-0.9-0.5-1.8-1.3-2.5-2l2.4-3.1c0.4,0.5,1,1.1,1.6,1.5c0.6,0.4,1.4,0.6,2.2,0.6c0.6,0,1.5-0.2,2.1-0.6
		c0.5-0.4,0.8-1,0.8-1.7c0-0.7-0.3-1.1-0.5-1.3c-0.1-0.1-0.5-0.4-1.5-0.8l-1.1-0.4c-0.3-0.1-1.7-0.7-2.6-1.7c-0.9-0.9-1.2-2-1.2-3.2
		c0-1.9,0.8-3.3,1.7-4.2c1.5-1.5,3.4-1.8,5-1.8s3.4,0.3,5.4,1.8L386.3,92.7z"/>
	<polygon class="st3" points="402.5,91.8 396.4,91.8 395.9,95.4 401.8,95.4 401.4,99.1 395.5,99.1 395,103.2 401.2,103.2 
		400.7,106.8 390.3,106.8 392.6,88.2 402.9,88.2 	"/>
	<path class="st3" d="M264,125.6h9.6c0,3.7-0.8,6.3-3,8.4c-2,1.8-4.2,2.4-6.6,2.4c-3.4,0-5.7-1.2-7.2-2.8c-1.4-1.4-2.7-3.7-2.7-6.7
		c0-3,1.2-5.4,2.8-7c1.5-1.5,3.9-2.7,7.2-2.7c1.7,0,3.6,0.4,5,1.3c1.5,0.9,2.7,2.4,3.3,3.8l-4.6,1.9c-0.3-0.9-0.9-1.5-1.3-1.9
		c-0.8-0.7-1.7-0.9-2.6-0.9c-1.1,0-2.3,0.4-3.2,1.3c-1.1,1.1-1.6,2.8-1.6,4.3c0,1.7,0.6,3.1,1.5,4c0.9,1,2,1.4,3.4,1.4
		c0.8,0,1.8-0.1,2.7-0.9c0.4-0.4,1-1,1.1-2.1h-4V125.6z"/>
	<path class="st3" d="M276.3,123.7h4.5v2c0.4-0.8,1.1-1.4,1.8-1.7c0.7-0.4,1.5-0.5,2.3-0.5c0.1,0,0.3,0,0.9,0.1v4.2
		c-0.2-0.1-0.8-0.4-1.9-0.4c-0.6,0-1.4,0.1-2,0.7c-1,0.9-1,2.2-1,2.9v5.3h-4.5V123.7z"/>
	<path class="st3" d="M297.4,123.7h4.5v12.5h-4.5v-1.4c-1,1.4-2.7,1.8-3.9,1.8c-1.3,0-3-0.4-4.5-2c-1.2-1.3-1.8-2.7-1.8-4.6
		c0-2.4,0.9-4,1.9-5c1.1-1.1,2.7-1.8,4.5-1.8c2,0,3.2,1,3.8,1.6V123.7z M292.7,127.9c-0.6,0.6-0.9,1.4-0.9,2c0,0.7,0.3,1.5,0.9,2
		c0.5,0.4,1.3,0.8,2,0.8c0.7,0,1.5-0.3,2-0.9c0.4-0.4,0.8-1,0.8-2c0-0.6-0.2-1.4-0.9-2c-0.4-0.4-1.1-0.8-2-0.8
		C294.1,127.1,293.4,127.3,292.7,127.9"/>
	<path class="st3" d="M305,123.7h4.5v1.6c1.2-1.6,2.9-1.8,4-1.8c1.3,0,2.7,0.3,3.7,1.3c1.1,1.1,1.2,2.1,1.2,3.5v7.9h-4.5v-6.3
		c0-0.7,0-1.8-0.6-2.4c-0.4-0.4-1-0.5-1.4-0.5c-0.7,0-1.3,0.3-1.7,0.6c-0.4,0.4-0.7,1.2-0.7,2v6.7H305V123.7z"/>
	<path class="st3" d="M335.5,136.2H331v-1.4c-1.3,1.6-2.9,1.8-3.8,1.8c-1.8,0-3.2-0.6-4.4-1.7c-1.3-1.2-2-3-2-5c0-2.1,0.9-3.9,2-5
		c1.2-1.2,2.9-1.7,4.4-1.7c1.7,0,2.9,0.8,3.7,1.6v-9.1h4.5V136.2z M330.2,132.1c0.6-0.5,1-1.4,1-2.1c0-0.7-0.4-1.5-0.8-2
		c-0.5-0.5-1.2-0.8-2-0.8c-1,0-1.6,0.4-2,0.8c-0.5,0.5-0.9,1.3-0.9,2.1c0,0.6,0.3,1.4,0.9,2c0.6,0.6,1.3,0.8,2,0.8
		C329,132.8,329.8,132.5,330.2,132.1"/>
	<polygon class="st3" points="356.1,121.7 350.4,121.7 350.4,124.8 355.8,124.8 355.8,128.9 350.4,128.9 350.4,132.1 356.1,132.1 
		356.1,136.2 345.5,136.2 345.5,117.6 356.1,117.6 	"/>
	<path class="st3" d="M359.6,132.1c0.5,0.4,1.2,0.7,1.8,0.9c0.6,0.2,1.3,0.3,1.7,0.3c0.3,0,0.9-0.1,1.1-0.3c0.2-0.2,0.2-0.4,0.2-0.6
		c0-0.2,0-0.4-0.2-0.6c-0.3-0.3-0.7-0.3-1.2-0.4l-1.2-0.3c-0.6-0.1-1.5-0.4-2.2-1.1c-0.5-0.5-0.8-1.2-0.8-2.2c0-1.2,0.5-2.3,1.2-3.1
		c1-1,2.6-1.5,4.5-1.5c1.8,0,3.3,0.5,4,0.8l-1.5,2.9c-0.6-0.3-1.5-0.6-2.4-0.6c-0.4,0-0.8,0.1-1,0.3c-0.3,0.1-0.4,0.3-0.4,0.6
		c0,0.4,0.3,0.6,0.5,0.7c0.4,0.2,0.8,0.2,1.5,0.4l0.8,0.2c0.6,0.2,1.5,0.6,1.8,1c0.6,0.6,1,1.6,1,2.5c0,1.5-0.6,2.5-1.3,3.1
		c-1.5,1.5-3.6,1.6-4.6,1.6c-1.1,0-2.9-0.1-5-1.5L359.6,132.1z"/>
	<polygon class="st3" points="376.2,127.4 376.2,136.2 371.7,136.2 371.7,127.4 370.3,127.4 370.3,123.7 371.7,123.7 371.7,119.6 
		376.2,119.6 376.2,123.7 378.7,123.7 378.7,127.4 	"/>
	<polygon class="st3" points="259.9,156 265.8,148.3 271.8,148.3 264.4,157.2 272.5,167 266.2,167 259.9,158.9 259.9,167 255.1,167 
		255.1,148.3 259.9,148.3 	"/>
	<polygon class="st3" points="273.8,167 277,148.3 281.8,148.3 285.5,158.3 289.5,148.3 294.4,148.3 297.2,167 292.3,167 291,156.3 
		286.5,167 284.5,167 280.2,156.3 278.6,167 	"/>
	<path class="st3" d="M318.2,151.8c1.6,2.2,2,4.3,2,5.9c0,2.5-1,5.1-2.9,7c-1.8,1.7-4.2,2.8-7.4,2.8c-2.5,0-4.3-0.7-5.8-1.6
		l-2.5,2.5l-2.5-2.4l2.4-2.4c-1.1-1.3-2-3.2-2-5.8c0-3,1.3-5.5,2.9-7c1.6-1.5,4.1-2.8,7.4-2.8c2.3,0,4.2,0.6,5.8,1.6l2.5-2.5
		l2.5,2.4L318.2,151.8z M312.1,153.2c-0.6-0.3-1.3-0.6-2.2-0.6c-1.7,0-2.9,0.6-3.8,1.5c-0.8,0.8-1.5,2.1-1.5,3.7
		c0,0.9,0.2,1.7,0.6,2.3L312.1,153.2z M307.7,162.2c0.7,0.4,1.4,0.6,2.2,0.6c1.6,0,2.9-0.6,3.7-1.5c0.9-0.9,1.5-2.1,1.5-3.6
		c0-1-0.2-1.7-0.6-2.4L307.7,162.2z"/>
	<path class="st3" d="M343.4,166.5c-1.9,0.7-3,0.9-4.2,0.9c-3.2,0-5.7-1.3-7.2-2.8c-1.8-1.8-2.8-4.4-2.8-6.8c0-2.7,1.1-5.2,2.8-6.9
		c1.6-1.7,4.1-2.9,7.1-2.9c0.9,0,2.4,0.1,4.4,1v5.8c-1.6-1.9-3.4-2-4.2-2c-1.4,0-2.5,0.4-3.4,1.2c-1.1,1.1-1.6,2.5-1.6,3.8
		c0,1.3,0.5,2.7,1.5,3.6c0.8,0.8,2.1,1.3,3.5,1.3c0.7,0,2.5-0.1,4.2-2V166.5z"/>
	<path class="st3" d="M355.7,154.5h4.5V167h-4.5v-1.4c-1,1.4-2.7,1.8-3.9,1.8c-1.3,0-3-0.4-4.5-2c-1.2-1.3-1.8-2.7-1.8-4.6
		c0-2.4,0.9-4,1.9-5c1.1-1.1,2.7-1.8,4.5-1.8c2,0,3.2,1,3.8,1.6V154.5z M351,158.7c-0.6,0.6-0.9,1.4-0.9,2c0,0.7,0.3,1.5,0.9,2
		c0.5,0.4,1.3,0.8,2,0.8c0.7,0,1.5-0.3,2-0.9c0.4-0.4,0.8-1,0.8-2c0-0.6-0.2-1.4-0.9-2c-0.4-0.4-1.1-0.8-2-0.8
		C352.4,157.9,351.6,158.1,351,158.7"/>
	<path class="st3" d="M363.2,154.5h4.5v1.5c1.1-1.3,2.5-1.7,3.8-1.7c0.9,0,1.7,0.2,2.4,0.6c0.9,0.5,1.4,1.2,1.7,1.8
		c0.5-0.9,1.1-1.4,1.7-1.7c0.9-0.5,1.8-0.6,2.6-0.6c0.9,0,2.4,0.1,3.5,1.1c1.1,1.1,1.2,2.6,1.2,3.4v8.1h-4.5v-6.2
		c0-1.3-0.1-2.2-0.6-2.7c-0.3-0.2-0.6-0.4-1.2-0.4c-0.5,0-0.9,0.1-1.3,0.5c-0.8,0.7-0.8,1.8-0.8,2.4v6.4h-4.5v-6.2
		c0-1.2-0.1-2.2-0.6-2.7c-0.4-0.4-0.9-0.5-1.3-0.5c-0.5,0-0.9,0.1-1.2,0.4c-0.8,0.8-0.8,2-0.8,2.7v6.2h-4.5V154.5z"/>
	<path class="st3" d="M392.1,173.4h-4.5v-18.9h4.5v1.4c0.8-1,2-1.8,3.8-1.8c1.9,0,3.4,0.8,4.5,1.8c1,1,1.9,2.7,1.9,4.8
		c0,2.1-0.8,3.8-2,5c-1.4,1.4-3,1.7-4.3,1.7c-0.8,0-2.5-0.2-3.9-1.6V173.4z M392.9,158.7c-0.6,0.6-0.9,1.4-0.9,2.1
		c0,0.7,0.4,1.5,0.9,2c0.5,0.5,1.3,0.8,2,0.8c0.8,0,1.5-0.3,2-0.8c0.5-0.5,0.9-1.2,0.9-2c0-0.7-0.3-1.5-0.9-2.1
		c-0.5-0.5-1.2-0.8-2-0.8C394.1,157.9,393.4,158.2,392.9,158.7"/>
	<path class="st3" d="M409.4,154.5v7c0,0.5,0.1,1.3,0.7,1.8c0.4,0.4,1,0.5,1.6,0.5c0.6,0,1.1-0.1,1.6-0.5c0.6-0.6,0.6-1.2,0.6-1.8
		v-7h4.5v7.8c0,1.1-0.1,2.2-1.2,3.4c-1.5,1.6-3.7,1.8-5.4,1.8c-1.9,0-4.2-0.2-5.7-1.8c-1-1-1.2-2.1-1.2-3.3v-7.8H409.4z"/>
	<path class="st3" d="M422.2,162.9c0.5,0.4,1.2,0.7,1.8,0.9c0.6,0.2,1.3,0.3,1.7,0.3c0.3,0,0.9-0.1,1.1-0.3c0.2-0.2,0.2-0.4,0.2-0.6
		c0-0.2,0-0.4-0.2-0.6c-0.3-0.3-0.7-0.3-1.2-0.4l-1.2-0.3c-0.6-0.1-1.5-0.4-2.2-1.1c-0.5-0.5-0.8-1.2-0.8-2.2c0-1.2,0.5-2.3,1.2-3.1
		c1-1,2.6-1.5,4.5-1.5c1.8,0,3.3,0.5,4,0.8l-1.5,2.9c-0.6-0.3-1.5-0.6-2.4-0.6c-0.4,0-0.8,0.1-1,0.3c-0.3,0.1-0.4,0.3-0.4,0.6
		c0,0.4,0.3,0.6,0.5,0.7c0.4,0.2,0.8,0.2,1.5,0.4l0.8,0.2c0.6,0.2,1.5,0.6,1.8,1c0.6,0.6,1,1.6,1,2.5c0,1.5-0.6,2.5-1.3,3.1
		c-1.5,1.5-3.6,1.6-4.6,1.6c-1.1,0-2.9-0.1-5-1.5L422.2,162.9z"/>
</g>
</svg>
